<svg xmlns="http://www.w3.org/2000/svg" viewBox="0 0 500 500"><defs><style>.cls-1{isolation:isolate;}.cls-2{fill:#7f646d;}.cls-3{fill:#d8b2be;}.cls-4{fill:#3c2a2a;}.cls-5{fill:#a4848e;}.cls-6{fill:#f2d7d4;}.cls-7{fill:#e6e6e6;mix-blend-mode:multiply;}.cls-8{fill:#fce8ed;}.cls-9{fill:#070606;}</style></defs><g class="cls-1"><g id="レイヤー_1" data-name="レイヤー 1"><path class="cls-2" d="M139.71,373.35a106.21,106.21,0,0,0-8.83,19.82,104.73,104.73,0,0,0-4.81,21.49c-.7,6.6-.63,13.5,1.55,19.84a25.68,25.68,0,0,0,4.95,8.68,17.33,17.33,0,0,0,9.87,6,16.45,16.45,0,0,0,10.41-2,21.74,21.74,0,0,0,8-7.95,43,43,0,0,0,4.51-10.66,60.51,60.51,0,0,0,2-9.51,63.54,63.54,0,0,0-.47-19.85c-1.33-7.18-3.72-14.32-7.87-20.39a28.5,28.5,0,0,0-7.91-8.13,7.61,7.61,0,0,0-5.05-1.25,6.62,6.62,0,0,0-4,2.2A3.09,3.09,0,0,0,139.71,373.35Z"/><path class="cls-3" d="M151.16,352.05l0,.46q-13.83,17.67-26.35,36.32c-4.2,6.25-8.32,12.57-12.24,19-3.62,5.94-7.06,12.06-9.05,18.76-1,3.45-2,7.23-1.68,10.86a9,9,0,0,0,2.74,5.79,7.7,7.7,0,0,0,4.28,1.94c3.25.4,6.42-.79,9.18-2.4a44.55,44.55,0,0,0,8.89-7.06,71.68,71.68,0,0,0,12.58-18.05,149.9,149.9,0,0,0,8.21-19.21A167.75,167.75,0,0,0,156.57,358c.09-1.07.18-2.14.25-3.21h0a3,3,0,0,0-.46-4.11l-.2-.14a3,3,0,0,0-1.65-.86C153.06,349.45,151.26,350.42,151.16,352.05Z"/><path class="cls-2" d="M106,382.34A89.09,89.09,0,0,0,87.76,401a28.35,28.35,0,0,0-4.83,9.88A12.5,12.5,0,0,0,85,421.51a14.45,14.45,0,0,0,12,4.95q.73,0,1.47-.12a29.33,29.33,0,0,0,11.4-3.35,56.59,56.59,0,0,0,18-15,60.31,60.31,0,0,0,10.81-20.58c.58-2,1.1-4,1.48-6s.91-4.57.14-6.73c-1.56-4.33-6.81-5.06-10.75-4.21a49.65,49.65,0,0,0-12.19,4.71A76.6,76.6,0,0,0,106,382.34Z"/><path class="cls-4" d="M242.31,478a3.46,3.46,0,0,0-1-2.41,4,4,0,0,0-2.41-1l-.6-.07h-.09l-1.05-.15-2.39-.38c-1.6-.27-3.18-.58-4.76-.92l-.15,0c1.27-.38,2.55-.74,3.83-1.07a3.41,3.41,0,0,0-1.81-6.58q-4.17,1.1-8.26,2.48V446.15a3.41,3.41,0,1,0-6.81,0v24.78l-1.72-.12-6.48-.43a3.42,3.42,0,0,0-3.41,3.41,3.49,3.49,0,0,0,3.41,3.41l8.28.55q1,2.13,2,4.3l0,0v0l.32.77.57,1.44c.41,1,.79,2.09,1.16,3.14a3.41,3.41,0,1,0,6.57-1.81c-.8-2.3-1.69-4.57-2.65-6.81a119.08,119.08,0,0,0,14,2.56,3.39,3.39,0,0,0,2.41-1A3.46,3.46,0,0,0,242.31,478Z"/><path class="cls-4" d="M351.92,465.63a3.45,3.45,0,0,0-1-2.41,4,4,0,0,0-2.41-1l-.61-.07h-.08l-1.05-.15-2.4-.38c-1.59-.27-3.18-.58-4.76-.92l-.14,0c1.27-.37,2.55-.73,3.83-1.07A3.41,3.41,0,0,0,341.5,453c-2.78.74-5.54,1.56-8.26,2.48V433.78a3.41,3.41,0,0,0-6.82,0v24.78l-1.72-.12-6.48-.43a3.42,3.42,0,0,0-3.4,3.41,3.48,3.48,0,0,0,3.4,3.41l8.29.55c.69,1.42,1.34,2.86,2,4.3l0,0v0c.1.26.21.51.31.77.2.48.39,1,.58,1.45.4,1,.79,2.08,1.16,3.13a3.41,3.41,0,1,0,6.57-1.81c-.81-2.29-1.69-4.57-2.65-6.8a120.75,120.75,0,0,0,14,2.55,3.39,3.39,0,0,0,2.41-1A3.45,3.45,0,0,0,351.92,465.63Z"/><path class="cls-5" d="M202,395.62l-.24-.1.23.1Z"/><path class="cls-5" d="M248.7,401a3.16,3.16,0,0,0-1.54-2.68,3.23,3.23,0,0,0-3.13,0l-1.26.59-.3.18a2.38,2.38,0,0,0-1.55.86c-.18.22-.37.42-.56.62l-.07.08-.21.11-.56.29h0l-.51.16a8.52,8.52,0,0,1-.84.2l-.42.08h0c-.61.06-1.21.11-1.81.14a79.82,79.82,0,0,1-9.15-.1c-1.52-.1-3-.25-4.55-.43l-.45-.06-.2,0-1.06-.16-2.26-.38a82.25,82.25,0,0,1-9-2.22c-1.63-.5-3.25-1.05-4.84-1.65-.8-.31-1.59-.62-2.38-.95h0l-.23-.1-.47-.21-.14-.06a3.06,3.06,0,0,0-2.56-1.36,3.14,3.14,0,0,0-3.08,2.87,3.62,3.62,0,0,0-.06,1c-.39,8.79-.73,17.65.38,26.4a66.52,66.52,0,0,0,3,13.67c1.42,4.11,3.24,8.35,6.4,11.44,3.54,3.46,8.26,4.52,13.06,4.66s9.64-.14,14-2.13c7.31-3.31,11-11.36,12.92-18.68a110.14,110.14,0,0,0,3.52-28.63C248.76,403.35,248.74,402.16,248.7,401Z"/><path class="cls-5" d="M351.72,397.24a3.18,3.18,0,0,0-3,2.33q-14.85,4.57-30,8.25c-2.63.64-5.27,1.25-7.91,1.85h-.25a3.18,3.18,0,0,0-3.1,3.1c-.51,6.63-.67,13.48,2.93,19.37a21.69,21.69,0,0,0,30.77,6.94c5.45-3.65,8.52-9.41,10.33-15.57a85.66,85.66,0,0,0,3.29-23.17A3.13,3.13,0,0,0,351.72,397.24Z"/><path class="cls-5" d="M403.42,244.92c-2.92-19.82-6.91-39.47-12.82-58.26s-13.29-37-23.17-53a190.86,190.86,0,0,0-16.11-22.83A148.28,148.28,0,0,0,332.2,92a110.46,110.46,0,0,0-21.65-13.58A82.11,82.11,0,0,0,287.75,71a108.52,108.52,0,0,0-28.25-1.48,111.72,111.72,0,0,0-25.14,5.23c-16.2,5.39-31.25,15.54-43.48,29.93-6.21,7.32-11.42,16.12-15.89,25.22a169.74,169.74,0,0,0-9.62,24.82C162.05,165.47,139.52,265,137,280.34l-8.07,48.4q-2,12-3.76,24c-.92,6.08-1.91,12.34-1.81,18.56.13,7.79,1.9,14,4.59,20.87a45.52,45.52,0,0,0,7.15,11.73,29.93,29.93,0,0,0,2.4,2.61,91.4,91.4,0,0,0,6.95,6.31c5.68,4.5,12.17,7.34,18.4,10.27a165.17,165.17,0,0,0,35.25,12.2q4.29.93,8.62,1.65a64.8,64.8,0,0,0,8.27,2,205.68,205.68,0,0,0,54.19,2.44,233.27,233.27,0,0,0,53.49-10.83,148.5,148.5,0,0,0,40.16-20,116.91,116.91,0,0,0,18.8-17.22,105.23,105.23,0,0,0,14.75-22.15,86.68,86.68,0,0,0,4.73-11.07,141.58,141.58,0,0,0,5.1-18.13,127.29,127.29,0,0,0,2-14c.58-6.52,1.06-13,1.11-19.59C409.4,287.18,406.49,265.76,403.42,244.92ZM275.06,381.59c.06-.13.11-.26.16-.38l.23.25Z"/><path class="cls-6" d="M379.36,174.57c.11.65.21,1.31.32,2a35.13,35.13,0,0,0-1.36-6.44c-.5-1.36-1.13-2.69-1.76-4a14.38,14.38,0,0,0-1.06-1.82,22.71,22.71,0,0,0-4-4.57,24.9,24.9,0,0,0-4.66-3.21,30.88,30.88,0,0,0-18.21-2.73,61.76,61.76,0,0,0-9.62,2.09c-2.61.82-5.18,1.78-7.72,2.8-5.16,2.08-10.2,4.42-15.34,6.54a83,83,0,0,1-16.18,5.15,42.22,42.22,0,0,1-8.41.26c-7.36-1.07-14.31-3.9-21.55-5.55a50.79,50.79,0,0,0-5.62-1,48.45,48.45,0,0,0-8.07-.48,41.09,41.09,0,0,0-12.4,2.46,42.46,42.46,0,0,0-11.16,6,49.49,49.49,0,0,0-5.56,4.86,46.68,46.68,0,0,0-4.69,6,28.8,28.8,0,0,0-2.71,4.93,36.18,36.18,0,0,0-2.51,7.64,29.19,29.19,0,0,0,1.09,15.57,34.64,34.64,0,0,0,8.91,12.9,55.12,55.12,0,0,0,6.31,4.86,34.59,34.59,0,0,0,5.39,3.06l-.47-.18a78.67,78.67,0,0,0,11.9,4.74c1.7.52,3.42,1,5.15,1.34.83.18,1.66.34,2.5.49l1.31.22c.24.05.48.1.72.13l2.36.26.36,0c1.6.13,3.21.2,4.81.2l.31,0a92.34,92.34,0,0,0,11.16.14c7.52-.2,15.05-.53,22.54-1.26a165.26,165.26,0,0,0,25.12-4.2,96,96,0,0,0,22.7-9,64.64,64.64,0,0,0,9.12-6.09,66.18,66.18,0,0,0,10-9.33A51.7,51.7,0,0,0,376,197.6a48.75,48.75,0,0,0,2.8-7.69,42.9,42.9,0,0,0,1.13-8.13A33.47,33.47,0,0,0,379.36,174.57Z"/><path class="cls-7" d="M315.4,301.62c0,.1-5.55-12.47-12.76-19.4-7.39-7.54-16.44-9.45-27.83-2.11-11.35,7-11.95,15.44-5.2,29.6,6.54,13.34,20.42,32.38,33.38,41.6,12.81,9.71,33.67,1.26,46.75-19.62,13.61-19.65,19.44-51.73,14.6-60.5C349.65,243.13,336.48,269,315.4,301.62Z"/><path class="cls-3" d="M318.6,297.43c0,.1-5.55-12.47-12.75-19.4-7.4-7.54-16.44-9.45-27.84-2.11-11.34,7-11.94,15.44-5.2,29.6,6.54,13.34,20.42,32.38,33.38,41.6,12.82,9.71,33.67,1.26,46.75-19.63,13.61-19.64,19.44-51.72,14.61-60.49C352.85,238.94,339.68,264.83,318.6,297.43Z"/><path class="cls-7" d="M179.73,319.84a25.13,25.13,0,0,1,.47-4.81,25.83,25.83,0,0,1,1.09-3.36,7.64,7.64,0,0,1,.5-1.09c.47-.81,1-1.59,1.54-2.36a4.71,4.71,0,0,1,.33-.45,18.41,18.41,0,0,1,2.58-2.42,6.92,6.92,0,0,1,.83-.59,25.22,25.22,0,0,1,3.07-1.55,11,11,0,0,1,2.19-.65c1.53-.31,3-.62,4.6-.78l2.69-.24,23.86-2.15,23.77-2.15L271,295.1l5.82-.52,2.53.23a7,7,0,0,1,3.29,1.63,4.94,4.94,0,0,1,1.78,1.71,7.63,7.63,0,0,1,1.85,3.31,31.16,31.16,0,0,1,.95,7.26,34.78,34.78,0,0,1-.78,7.26c-.18.78-.41,1.55-.66,2.3-.51,1.53-1,3.08-1.65,4.55a38,38,0,0,1-3.22,5.57A31.73,31.73,0,0,1,279,332a74.42,74.42,0,0,1-6.81,9.39,69.48,69.48,0,0,1-8.3,8,46.87,46.87,0,0,1-8.25,5.54,66.14,66.14,0,0,1-11.52,4.88q-2.46.74-5,1.23c-2.41.48-4.82,1-7.26,1.21a54.42,54.42,0,0,1-10.29.09,51.7,51.7,0,0,1-18.53-4.4,35,35,0,0,1-4.2-2.1,45.64,45.64,0,0,1-5.7-4,25.85,25.85,0,0,1-3.35-3.27,36.59,36.59,0,0,1-4.27-5.82c-.83-1.47-1.51-3-2.2-4.59-.37-.84-.7-1.71-1-2.58A39,39,0,0,1,181,330.2a77.45,77.45,0,0,1-1.2-7.87A20.72,20.72,0,0,1,179.73,319.84Z"/><path class="cls-5" d="M171.76,314.73a24.59,24.59,0,0,1,.51-4.82,26.58,26.58,0,0,1,1.17-3.35,6.91,6.91,0,0,1,.54-1.09c.5-.81,1.07-1.6,1.63-2.37.12-.15.23-.31.36-.46a19.62,19.62,0,0,1,2.74-2.42,7.11,7.11,0,0,1,.88-.59,28.05,28.05,0,0,1,3.27-1.57,13.32,13.32,0,0,1,2.32-.65c1.63-.31,3.24-.63,4.89-.79,1-.1,1.91-.17,2.86-.26l25.32-2.22,25.23-2.22,25.23-2.21,6.19-.54,2.68.22a7.49,7.49,0,0,1,3.49,1.62,5,5,0,0,1,1.88,1.7,7.63,7.63,0,0,1,2,3.31,29.67,29.67,0,0,1,1,7.26,32.88,32.88,0,0,1-.85,7.26,21.2,21.2,0,0,1-.71,2.31c-.55,1.53-1.07,3.07-1.76,4.55a38.56,38.56,0,0,1-3.44,5.58,28.9,28.9,0,0,1-2,3.61,74.47,74.47,0,0,1-7.26,9.42,73.55,73.55,0,0,1-8.83,8,50.2,50.2,0,0,1-8.77,5.57A72.06,72.06,0,0,1,240,354.5c-1.73.49-3.5.91-5.27,1.25-2.56.48-5.12,1-7.71,1.22a60.36,60.36,0,0,1-10.92.13,68.83,68.83,0,0,1-12.77-2,69.94,69.94,0,0,1-6.89-2.36,39.94,39.94,0,0,1-4.44-2.09,48,48,0,0,1-6-4,26.76,26.76,0,0,1-3.55-3.26,36.61,36.61,0,0,1-4.51-5.81,49.32,49.32,0,0,1-2.32-4.59c-.39-.84-.74-1.7-1.06-2.58a37.33,37.33,0,0,1-1.45-5.32,72.34,72.34,0,0,1-1.24-7.87A20.72,20.72,0,0,1,171.76,314.73Z"/><path class="cls-7" d="M405.27,294.28a26.68,26.68,0,0,0-.56-3.58c-.21-.84-.5-1.66-.78-2.44a6.26,6.26,0,0,0-.34-.79c-.29-.58-.62-1.13-.95-1.67a3.45,3.45,0,0,0-.2-.32,11.93,11.93,0,0,0-1.49-1.65,4.12,4.12,0,0,0-.47-.38,13.11,13.11,0,0,0-1.69-1,4.65,4.65,0,0,0-1.18-.34,16.75,16.75,0,0,0-2.43-.28h-1.42l-12.49-.06-12.45-.06-12.45-.06h-3.06L352,282a3.49,3.49,0,0,0-1.59,1.43,3.32,3.32,0,0,0-.81,1.4,7,7,0,0,0-.75,2.61,33.66,33.66,0,0,0,0,5.5,36.94,36.94,0,0,0,.88,5.39c.15.58.31,1.14.49,1.69.37,1.11.73,2.24,1.16,3.3a33.59,33.59,0,0,0,2,4,27.87,27.87,0,0,0,1.22,2.58,56,56,0,0,0,4.14,6.6,45.59,45.59,0,0,0,4.82,5.44,24.92,24.92,0,0,0,4.64,3.62,28.72,28.72,0,0,0,6.29,2.91,21,21,0,0,0,2.65.6,29.49,29.49,0,0,0,3.84.43,19.29,19.29,0,0,0,5.34-.6,23.68,23.68,0,0,0,6.1-2.29,29.12,29.12,0,0,0,3.21-2.21,18.35,18.35,0,0,0,2-1.85,28,28,0,0,0,2.69-3.4,19.11,19.11,0,0,0,1.52-2.67,31.33,31.33,0,0,0,1.83-4.64c.33-1.16.58-2.39.84-3.59.13-.66.25-1.33.35-2,.19-1.34.3-2.71.36-4.09.09-2,.16-4,.1-6C405.38,295.52,405.34,294.9,405.27,294.28Z"/><path class="cls-5" d="M417.31,289.49a22.61,22.61,0,0,0-.63-3.57,24.52,24.52,0,0,0-.92-2.44,6.35,6.35,0,0,0-.4-.78c-.35-.57-.74-1.12-1.12-1.66a3.92,3.92,0,0,0-.25-.32,11.82,11.82,0,0,0-1.78-1.63,3.45,3.45,0,0,0-.56-.38,14.93,14.93,0,0,0-2-.95,6.36,6.36,0,0,0-1.42-.33,26.34,26.34,0,0,0-2.93-.26h-1.7l-15.08.08-15,.07-15,.08-3.68,0-1.56.35a4.31,4.31,0,0,0-2,1.46,3.36,3.36,0,0,0-1,1.4,6.4,6.4,0,0,0-.92,2.62,27.41,27.41,0,0,0-.08,5.51,31.31,31.31,0,0,0,1,5.38c.17.58.37,1.14.58,1.69.43,1.11.85,2.23,1.36,3.28a29.51,29.51,0,0,0,2.41,3.95,23.58,23.58,0,0,0,1.43,2.57,56.29,56.29,0,0,0,4.93,6.57,49.41,49.41,0,0,0,5.76,5.39,29.55,29.55,0,0,0,5.55,3.57,37.86,37.86,0,0,0,7.56,2.84,29.22,29.22,0,0,0,3.19.57,42.72,42.72,0,0,0,4.63.39,28,28,0,0,0,6.44-.66,33.46,33.46,0,0,0,7.39-2.36,37,37,0,0,0,3.89-2.25,19.89,19.89,0,0,0,2.48-1.87,30.45,30.45,0,0,0,3.27-3.43,17.87,17.87,0,0,0,1.87-2.69,29.54,29.54,0,0,0,2.26-4.66c.41-1.17.72-2.39,1-3.6.18-.66.32-1.33.45-2a34.59,34.59,0,0,0,.48-4.09c.13-2,.24-4,.19-6A16.79,16.79,0,0,0,417.31,289.49Z"/><path class="cls-8" d="M359.73,191.93c2.76.11,5.18,1.19,6.39,3.36,2.32,4.79.64,7.4-1.19,8.82a10.28,10.28,0,0,1-6,1.72,27.4,27.4,0,0,0-7.33,1.17c-2.87.74-6,1.87-8.92,1.83-4.8.4-4.89-2.85-2.6-6.23s6.72-6.92,8.76-7.63C351.91,193.39,356,191.75,359.73,191.93Z"/><path class="cls-8" d="M249.69,205.22c-3.06,1.07-5.4,3.12-6,6-1,6.18,1.84,8.52,4.39,9.48a12,12,0,0,0,7.28-.13,32.29,32.29,0,0,1,8.64-1.21c3.49-.17,7.36,0,10.66-1,5.52-1.22,4.49-4.91.76-7.91s-10-5.44-12.48-5.53C259,204.15,253.8,203.73,249.69,205.22Z"/><path class="cls-4" d="M334.55,91.39a1.53,1.53,0,0,0-2.07-.54,107.55,107.55,0,0,1-28.65,14.57,110,110,0,0,1-31.65,5.6,104.44,104.44,0,0,1-17.93-1,1.56,1.56,0,0,0-1.86,1.06,1.53,1.53,0,0,0,1.06,1.87,111.49,111.49,0,0,0,33.23-.24,113,113,0,0,0,31.44-9.82A109,109,0,0,0,334,93.47,1.56,1.56,0,0,0,334.55,91.39Z"/><path class="cls-2" d="M303.52,143.27c-.54,1.23-.92,1.91-1.8,1.86a1.66,1.66,0,0,1-1.49-1.45,15.64,15.64,0,0,1-.57-5.23,1.63,1.63,0,0,1,1.33-1.59,1.59,1.59,0,0,1,1.81,1A8.36,8.36,0,0,1,303.52,143.27Z"/><path class="cls-2" d="M301.77,157.8c.27-1.19.41-2.24,1.59-2.31s1.5,1,1.63,1.9a32.83,32.83,0,0,1,.38,4.43,1.79,1.79,0,0,1-1.4,1.86c-1.05.19-1.47-.7-1.72-1.49A9.09,9.09,0,0,1,301.77,157.8Z"/><path class="cls-2" d="M311.58,151.86c-.57.83-1.26,1.41-2.28.71s-1.27-4.5-.42-5.74a1.55,1.55,0,0,1,2.14-.65C312.11,146.73,312.45,150.48,311.58,151.86Z"/><path class="cls-2" d="M309.59,125.51c1.65,1,1.92,5.35.7,6.3a1.38,1.38,0,0,1-2.18-.3A5.36,5.36,0,0,1,308,126,1.11,1.11,0,0,1,309.59,125.51Z"/><path class="cls-2" d="M292.62,134.14c-.23.8-.69,1.3-1.59,1.15-1.26-.21-2.88-3.66-2.46-5.2a1.41,1.41,0,0,1,1.93-1C291.52,129.32,293,132.85,292.62,134.14Z"/><path class="cls-2" d="M293.05,148c1.17.61,1.32,1.65,1.57,2.61s.61,2.17-.24,3.14a1,1,0,0,1-1.26.26c-1.18-.58-1.16-1.79-1.43-2.82a2.79,2.79,0,0,1,.5-2.84A2.34,2.34,0,0,1,293.05,148Z"/><path class="cls-9" d="M280.78,183.85a1.36,1.36,0,0,0-1.33,1.34c-.14,2.61-.26,5.36-1.44,7.72q-.22.43-.48.84c-.07.12-.15.23-.22.34l-.16.21a9.08,9.08,0,0,1-1.14,1.18,6.6,6.6,0,0,1-1,.73c-.22.14-.45.27-.69.4l-.36.17-.18.09-.11,0a12.29,12.29,0,0,1-1.53.48,7.11,7.11,0,0,1-1.51.23,10.3,10.3,0,0,1-1.47,0l-.31,0-.26,0a9.37,9.37,0,0,1-.92-.19,8.68,8.68,0,0,1-2.83-1.32,11.23,11.23,0,0,1-2.26-2.2,11.59,11.59,0,0,1-1.71-3.23,10,10,0,0,1-.55-3.74,1.34,1.34,0,0,0-2.67,0,13.42,13.42,0,0,0,8.43,12.77,11.93,11.93,0,0,0,13.67-4.38c2-2.95,2.2-6.65,2.39-10.08A1.35,1.35,0,0,0,280.78,183.85Z"/><path class="cls-9" d="M352.86,171.31a1.36,1.36,0,0,0-1.33,1.34c-.14,2.6-.27,5.36-1.45,7.71a8.76,8.76,0,0,1-.47.85l-.23.34-.15.21a8.55,8.55,0,0,1-1.15,1.18,6,6,0,0,1-1,.73q-.35.21-.69.39l-.36.18-.19.08-.11.05a11.33,11.33,0,0,1-1.53.48,6.33,6.33,0,0,1-1.5.22,10.3,10.3,0,0,1-1.47,0l-.32,0-.26,0c-.3-.05-.61-.11-.91-.19a8.5,8.5,0,0,1-2.83-1.33,11.22,11.22,0,0,1-2.27-2.19,11.55,11.55,0,0,1-1.7-3.23,10.24,10.24,0,0,1-.56-3.75A1.33,1.33,0,0,0,331,173a1.35,1.35,0,0,0-1.33,1.34,13.42,13.42,0,0,0,8.43,12.77,11.9,11.9,0,0,0,13.66-4.39c2-2.94,2.2-6.64,2.4-10.07A1.35,1.35,0,0,0,352.86,171.31Z"/><path class="cls-4" d="M330.66,232c-.38-3.57-2.47-6.84-4.8-9.48a47.79,47.79,0,0,0-7.84-6.85l-.69-.5A69.08,69.08,0,0,0,324,207c2.21-3.22,4.27-7.57,2-11.32a4.58,4.58,0,0,0-5.6-1.79,17.35,17.35,0,0,0-4.9,3.05,40.37,40.37,0,0,0-7.47,7.7,44.22,44.22,0,0,0-3.72,5.5,40.13,40.13,0,0,0-2.24,4.56c-.71,1.72-1.57,3.61-1.5,5.5s1.48,3.45,2.77,4.81,2.74,2.87,4.15,4.27c2.75,2.72,5.55,5.47,8.55,7.9,2.67,2.17,6.1,4.16,9.65,3.18S331,235.43,330.66,232Z"/><path class="cls-3" d="M387.23,314.78c-3.1.39-8.29-.39-8.31,2.79,0,3.81,5.32,2.52,8.66,2.82a13.54,13.54,0,0,0,1.8,0c2.65-.12,6-.23,6-2.78.09-3-3.45-2.81-6.28-2.83C388.54,314.75,387.94,314.77,387.23,314.78Z"/><path class="cls-3" d="M372.61,290.6c-2.49,0-5.37.4-4.79,2.15,1,2.92,4.95,3.11,8.25,3.39,2.25.2,5-.07,4.4-2.49C379.62,290,375.05,291.53,372.61,290.6Z"/><path class="cls-3" d="M371.87,304.18c-2.17.86-6-.16-6.3,2.58s3.09,2.78,5.69,2.88,5.21-.15,5.28-2.67C376.61,304.79,374.26,304.34,371.87,304.18Z"/><path class="cls-3" d="M395.35,301.71c-2.07.18-5-.2-4.66,2.41s3.63,2.63,6.07,2.88c2.06.2,4.33-.44,4.31-2.43C401.06,301.67,398.08,301.75,395.35,301.71Z"/><path class="cls-3" d="M390.74,288.46c2.31-.14,4.75-.63,4.87-2.68.13-2.23-2.47-2.77-4.71-2.5-2,.24-4.89.45-5,2.68S388.45,288.37,390.74,288.46Z"/><path class="cls-3" d="M250.45,313.78c-2,.48-4.35,1.76-3.23,4,1.87,3.83,5.25,1.58,7.89,1.22,1.76-.84,4.64-1,3.45-3.46C256.88,312.08,253.39,313.07,250.45,313.78Z"/><path class="cls-3" d="M254.4,332.48c-2.08,1.08-4.55,1.93-4.06,4.83a2.5,2.5,0,0,0,3.91,1.76c2.19-1.23,5.94-1.7,5.2-5.28C258.91,331.19,256.22,332.48,254.4,332.48Z"/><path class="cls-3" d="M274.27,319.6c-.77-2.64-3.21-1.56-5-.92-2.07.73-4.95,1.11-4.16,4.28.68,2.73,2.91,2,5.13,1.22C272,323.22,275.25,322.93,274.27,319.6Z"/><path class="cls-3" d="M232.12,323.54c-2,.48-4.34,1.77-3.23,4,1.88,3.82,5.26,1.58,7.89,1.21,1.76-.83,4.65-1,3.45-3.46C238.55,321.85,235.07,322.83,232.12,323.54Z"/><path class="cls-3" d="M232.72,306.85c-2.07.72-4.95,1.1-4.16,4.27.68,2.74,2.91,2,5.13,1.23,1.75-1,5-1.25,4.07-4.58C237,305.13,234.55,306.2,232.72,306.85Z"/><path class="cls-3" d="M263.87,307.2c1.84-.74,4.09-1.09,3.4-3.31-.85-2.71-3.37-2.16-5.45-1.67s-3.23,2.26-2.46,4.18C260.35,308.83,262.49,307.25,263.87,307.2Z"/><path class="cls-3" d="M246.44,298.49c1.4-.55,3.26-.91,2.65-3s-2.41-2-4.12-1.42-3.24,1.5-2.44,3.57S245,298.8,246.44,298.49Z"/><path class="cls-2" d="M144,343.91a3.36,3.36,0,0,0-3.63-.15,5.4,5.4,0,0,0-2.05,3.25,9.54,9.54,0,0,0-.28,3.76A5.65,5.65,0,0,0,139.2,354h0a1.57,1.57,0,0,0,1.55,1.53h.37a2.18,2.18,0,0,0,1,0,2.93,2.93,0,0,0,1.2-.67,5.93,5.93,0,0,0,2.51-3.74C146.36,348.67,146.17,345.4,144,343.91Z"/><path class="cls-2" d="M153.27,359a3.29,3.29,0,0,0-3,.81c-2.1.71-2.8,3.08-2.55,5.12a.22.22,0,0,0,0,.08,6.14,6.14,0,0,0,.35,2.4,3.51,3.51,0,0,0,2.08,2.42,3.18,3.18,0,0,0,3.07-1.29,5.73,5.73,0,0,0,1.06-2.14,7.27,7.27,0,0,0,.74-1.72C155.52,362.86,155.43,359.63,153.27,359Z"/><path class="cls-2" d="M143.38,372.42a2.76,2.76,0,0,0-3.91-1.94,6.43,6.43,0,0,0-2.66,2.51,7.17,7.17,0,0,0-.8,1.92,6.36,6.36,0,0,0-.55,2.55,4.24,4.24,0,0,0,1.33,3,2.89,2.89,0,0,0,1.61,1.2,3,3,0,0,0,2.74-.86,7,7,0,0,0,2.42-4.26,3.09,3.09,0,0,0,0-.43A8,8,0,0,0,143.38,372.42Z"/><path class="cls-2" d="M157.28,390.05c-.26-2-.64-4.32-2.66-5.31a5.19,5.19,0,0,0-5.24.61,6.11,6.11,0,0,0-1.86,2.26,15.88,15.88,0,0,0-1.93,5.52c-.56,3.33-.28,7.95,3.12,9.76a5.29,5.29,0,0,0,5.57-.44,7.86,7.86,0,0,0,3.09-5.41A26.39,26.39,0,0,0,157.28,390.05Z"/><path class="cls-3" d="M116.9,431.43h0C116.66,431.44,116.32,431.57,116.9,431.43Z"/><path class="cls-2" d="M214.62,42.65A140,140,0,0,1,219,26.42c1.46-4.74,3-9.5,3-13.72,0-1.17-.27-2.34-1.41-2.63s-2.49.33-3.79,1a31.35,31.35,0,0,0-7.9,6,54.87,54.87,0,0,0-6.71,8.39A62.67,62.67,0,0,0,191.7,59a56.59,56.59,0,0,0,.92,11.54,33.41,33.41,0,0,0,3.46,10.09A19,19,0,0,0,202,87.38a9.43,9.43,0,0,0,6.46,1.77A4.28,4.28,0,0,0,209,89a5,5,0,0,0,4.3-3,14.28,14.28,0,0,0,1.14-7c-.09-2.71-.56-5.51-.86-8.29q-.51-4.71-.56-9.44A96.67,96.67,0,0,1,214.62,42.65Z"/><path class="cls-4" d="M211.09,54.55a.81.81,0,0,0-1.12.31q-2.85,4.08-5.32,8.41A161.63,161.63,0,0,1,206,43.49a1,1,0,0,0,.47-.37,57.63,57.63,0,0,1,3.81-4.88.88.88,0,0,0-.13-1.19.85.85,0,0,0-1.14.27c-.9,1-1.76,2.09-2.59,3.18,0-.27.09-.55.13-.82a.75.75,0,0,0,.31-.3,72.76,72.76,0,0,1,7.7-11.55c.73-.89-.47-1.83-1.21-.93a75.52,75.52,0,0,0-6.11,8.66q.75-4.12,1.72-8.21c.26-1.11-1.34-1.2-1.6-.09a163.08,163.08,0,0,0-3.74,23.16q-1.47-2.31-3-4.52a.77.77,0,0,0-1.15,0,1,1,0,0,0-.11,1.25q1.88,2.64,3.61,5.44a.92.92,0,0,0,.45.38v.12c0,.38,0,.76-.07,1.13-2-2.88-3.88-5.84-5.64-8.85a.74.74,0,0,0-1.07-.33,1,1,0,0,0-.41,1.21c2,3.47,4.23,6.85,6.57,10.16a.62.62,0,0,0,.41.24q-.24,4.81-.2,9.63a.8.8,0,0,0,0,.61q.07,6.14.62,12.24c.21,2.44.75,7.9,1.66,13.32s2.1,10.8,2.72,13.19c.28,1.11,1.92.91,1.64-.2A158.78,158.78,0,0,1,206.27,88a171.53,171.53,0,0,1-1.53-17.65.61.61,0,0,0,.3-.23,68.64,68.64,0,0,0,3.72-5.92.83.83,0,0,0-1.43-.84q-1.25,2.24-2.66,4.34c0-.33,0-.66,0-1a107.93,107.93,0,0,1,6.69-11A.86.86,0,0,0,211.09,54.55Z"/><path class="cls-4" d="M188.09,56.11a1.88,1.88,0,0,0-2.44-.4,2.15,2.15,0,0,0-.79.93,1.79,1.79,0,0,0-.25,1.64l0,.07a28.68,28.68,0,0,1-4.49,5.73,52.88,52.88,0,0,0-3.38-5,.47.47,0,0,0,0-.1L179,53.3a2.08,2.08,0,0,0,.41-.11,2.15,2.15,0,0,0,1.43-1.91,2.36,2.36,0,0,0-1-2.07.83.83,0,0,0-.78-.1,2.11,2.11,0,0,0-1.92,3.56q-.88,2.28-1.78,4.57a36.74,36.74,0,0,0-3.8-3.89l-.08-.07a2.42,2.42,0,0,0,0-.47,2.18,2.18,0,0,0-.62-2.28A2.35,2.35,0,0,0,167,51.78a2.17,2.17,0,0,0,0,.62A2.36,2.36,0,0,0,170,54.94l.21-.08A37.1,37.1,0,0,1,174,58.8l-2.17,1-1.6.65-.48.19a2.69,2.69,0,0,0-.73-.28,1.44,1.44,0,0,0-.9-.1,1.54,1.54,0,0,0-.47.21,2.42,2.42,0,0,0-.36.18,2.28,2.28,0,0,0-.75,3.17,2.21,2.21,0,0,0,3,.78.61.61,0,0,0,.14-.07,2.15,2.15,0,0,0,1.09-2.15l.55-.24c1.32-.53,2.63-1.09,3.92-1.68a47.84,47.84,0,0,1,3.17,4.75,20.05,20.05,0,0,1-4.82,1.4,4.05,4.05,0,0,0-.5.12.39.39,0,0,0-.1-.08,2.4,2.4,0,0,0-3.19.38,2.52,2.52,0,0,0-.06,3.46,2.3,2.3,0,0,0,3.25-.13,2,2,0,0,0,.73-.8,2.22,2.22,0,0,0,.22-1c.49-.13,1-.17,1.51-.28a18.62,18.62,0,0,0,3.95-1.35,78.06,78.06,0,0,1,3.43,7.22c.87,2.07,1.68,4.17,2.45,6.28a1,1,0,0,0,1.24.7,1,1,0,0,0,.7-1.24,105.78,105.78,0,0,0-6.1-14,30.37,30.37,0,0,0,4.73-5.76,1.69,1.69,0,0,0,.67.08,2.25,2.25,0,0,0,1.85-1.58A2.54,2.54,0,0,0,188.09,56.11Z"/><path class="cls-8" d="M278.51,105.26a13.1,13.1,0,0,0-2-4.12,13.64,13.64,0,0,0-1.76-2,18,18,0,0,0-1.83-1.43l-.07-.06c0-.22,0-.43,0-.64.19-1.2.44-2.38.53-3.6a15.13,15.13,0,0,0-.23-3.8,8.86,8.86,0,0,0-4.56-6.37,16.16,16.16,0,0,0-8.22-1.3,25.21,25.21,0,0,0-4.05.6,21.1,21.1,0,0,0-3.75,1.38,18.87,18.87,0,0,0-3.14,1.82,2.89,2.89,0,0,0-.5-.33,18.12,18.12,0,0,0-15.69-.69c-4.59,2-8.53,7.31-6.7,12.46a14.09,14.09,0,0,0,1.91,3.54,18.84,18.84,0,0,1,1.6,2.46,6.05,6.05,0,0,1,.2.73,8.69,8.69,0,0,1,0,1.35c-.25,1.44-.7,2.83-1,4.25a21.33,21.33,0,0,0-.66,5.73c.14,3.47,1.4,7.14,4.14,9.42a10.08,10.08,0,0,0,2.44,1.6,13.11,13.11,0,0,0,1.81.67l.49.14c.22.39.4.79.63,1.18a12.89,12.89,0,0,0,1.61,2.14,12,12,0,0,0,4.23,2.9,12,12,0,0,0,13.1-2.54c.54-.54,1-1.11,1.6-1.62a8,8,0,0,1,.81-.46c2.12-.76,4.42-.83,6.55-1.54a13.48,13.48,0,0,0,4.53-2.6,19.62,19.62,0,0,0,2.61-2.78,30.12,30.12,0,0,0,5-7.85A13.34,13.34,0,0,0,278.51,105.26Z"/><path class="cls-8" d="M257.44,87.27Z"/><path class="cls-5" d="M255.8,103.13a1.38,1.38,0,0,0-2.34,1,1.33,1.33,0,0,0,.22.84l.06.09a1.42,1.42,0,0,0,2,.22,1.26,1.26,0,0,0,.36-.62A1.3,1.3,0,0,0,255.8,103.13Z"/><path class="cls-5" d="M244,103.44a1.58,1.58,0,0,0-.62-.53,1.41,1.41,0,0,0-1.05-.11,1.45,1.45,0,0,0-1,1,1.48,1.48,0,0,0,.74,1.61,1.47,1.47,0,0,0,1.76-.25A1.44,1.44,0,0,0,244,103.44Z"/><path class="cls-5" d="M251.22,99.12a3,3,0,0,0,.14-.71,1.5,1.5,0,0,0-.92-1.5,1.81,1.81,0,0,0-1.63.17,2.06,2.06,0,0,0-.9,1.27,1.53,1.53,0,0,0,.13,1,1.34,1.34,0,0,0,.24.32,1.47,1.47,0,0,0,.66.57,1.65,1.65,0,0,0,1.77-.32l.06-.06A1.55,1.55,0,0,0,251.22,99.12Z"/><path class="cls-5" d="M250.93,111.14a1.67,1.67,0,0,0-2.51-1,1.21,1.21,0,0,0-.69.74,2.41,2.41,0,0,0-.08.25,1.31,1.31,0,0,0-.06.27.78.78,0,0,0,0,.16,1.86,1.86,0,0,0,0,.34,1.47,1.47,0,0,0,1.86,1.49l.22-.1A1.81,1.81,0,0,0,250.93,111.14Z"/><path class="cls-5" d="M257.61,96.44a1.55,1.55,0,0,0-1.81-.17,1.37,1.37,0,0,0-.24.18l-.13.1a1.54,1.54,0,0,0-.31,1.83A1.59,1.59,0,0,0,258,98,1.61,1.61,0,0,0,257.61,96.44Z"/><path class="cls-5" d="M257.43,110.92a1.77,1.77,0,0,0-2,.41,1.66,1.66,0,0,0-.43,2,1.62,1.62,0,0,0,1.52.85,1.71,1.71,0,0,0,1.53-1.26,1.73,1.73,0,0,0,.06-.6A1.33,1.33,0,0,0,257.43,110.92Z"/><path class="cls-5" d="M241.58,109.9a1.75,1.75,0,0,0-1.91,1.29,2,2,0,0,0,.1,1.48,1.54,1.54,0,0,0,1.61.88,2,2,0,0,0,1.4-.89A1.81,1.81,0,0,0,241.58,109.9Z"/><path class="cls-5" d="M243.45,95.42a1.25,1.25,0,0,0-.3-.21,1.55,1.55,0,0,0-1-.4A1.61,1.61,0,0,0,240.56,96a1.71,1.71,0,0,0,.75,1.88,1.78,1.78,0,0,0,2.08-.26A1.54,1.54,0,0,0,243.45,95.42Z"/><path class="cls-5" d="M258.65,107.24l-.26-.1h0l-.11,0h0a1.06,1.06,0,0,0-.72.13,1.13,1.13,0,0,0-.4,1.51,1.11,1.11,0,0,0,1,.56,1.15,1.15,0,0,0,1-.56A1.11,1.11,0,0,0,258.65,107.24Z"/><path class="cls-5" d="M259.53,101.74a1.11,1.11,0,0,0,0,2.21A1.11,1.11,0,0,0,259.53,101.74Z"/><path class="cls-5" d="M253.32,114.2a1.09,1.09,0,0,0-.78-.33,1.11,1.11,0,0,0-.78.33,1.12,1.12,0,0,0-.32.78v0a1.09,1.09,0,0,0,1.1,1.1,1.12,1.12,0,0,0,.78-.32,1.16,1.16,0,0,0,.32-.78v0A1.12,1.12,0,0,0,253.32,114.2Z"/><path class="cls-5" d="M246.5,115.14a1.15,1.15,0,0,0-.78-.33,1.36,1.36,0,0,0-.48.12.82.82,0,0,0-.38.25,1.11,1.11,0,0,0-.3,1.1,1.15,1.15,0,0,0,.8.8,1.19,1.19,0,0,0,1.12-.31,1.31,1.31,0,0,0,.24-.37,1.46,1.46,0,0,0,.1-.48A1.08,1.08,0,0,0,246.5,115.14Z"/><path class="cls-5" d="M237.47,106.19a1.11,1.11,0,0,0,0,2.21A1.11,1.11,0,0,0,237.47,106.19Z"/><path class="cls-5" d="M238.45,100.6a1.1,1.1,0,0,0,0,2.2A1.1,1.1,0,0,0,238.45,100.6Z"/><path class="cls-5" d="M248.33,92.38a1.11,1.11,0,0,0,0,2.21A1.11,1.11,0,0,0,248.33,92.38Z"/><path class="cls-5" d="M254.44,93.1a1.11,1.11,0,0,0-.66-.5,1.06,1.06,0,0,0-.85.11l-.17.11a1.18,1.18,0,0,0-.5.66,1.1,1.1,0,0,0,1.62,1.25l.16-.12a1.2,1.2,0,0,0,.51-.66A1.15,1.15,0,0,0,254.44,93.1Z"/><path class="cls-5" d="M257.9,116.73a1.15,1.15,0,0,0-.78-.33,1.13,1.13,0,0,0-1.11,1.11v0a1.15,1.15,0,0,0,.33.78,1.12,1.12,0,0,0,.78.32,1.1,1.1,0,0,0,.78-.32,1.19,1.19,0,0,0,.32-.78v0A1.14,1.14,0,0,0,257.9,116.73Z"/><path class="cls-5" d="M263.21,112.89a1.12,1.12,0,0,0-.78-.32,1.16,1.16,0,0,0-.78.32l-.08.09a1.12,1.12,0,0,0-.32.78,1.09,1.09,0,0,0,1.1,1.1,1.12,1.12,0,0,0,.78-.32l.08-.09a1.13,1.13,0,0,0,.33-.78A1.11,1.11,0,0,0,263.21,112.89Z"/><path class="cls-5" d="M262.06,108.81a1.1,1.1,0,0,0,0,2.2A1.1,1.1,0,0,0,262.06,108.81Z"/><path class="cls-5" d="M264.39,105.91a1.1,1.1,0,0,0,0,2.2A1.1,1.1,0,0,0,264.39,105.91Z"/><path class="cls-5" d="M236,113.34a1.11,1.11,0,0,0,0,2.21A1.11,1.11,0,0,0,236,113.34Z"/><path class="cls-5" d="M240.54,116.65a1.12,1.12,0,0,0-.78-.33,1.18,1.18,0,0,0-.78.33l0,0a1.12,1.12,0,0,0-.32.78,1.09,1.09,0,0,0,1.1,1.1,1.12,1.12,0,0,0,.78-.32l0,0a1.14,1.14,0,0,0,.32-.78A1.12,1.12,0,0,0,240.54,116.65Z"/><path class="cls-3" d="M303.64,106a9.67,9.67,0,0,0-3-3.7,9.48,9.48,0,0,0-1.62-1A9.38,9.38,0,0,0,299.5,99a7.32,7.32,0,0,0-1.33-4.7,9.1,9.1,0,0,0-4.69-3.49,8.5,8.5,0,0,0-5.16.1,11.27,11.27,0,0,0-7,7.34,38.52,38.52,0,0,0-3.55,1.7,11.57,11.57,0,0,0-5.38,7.78,16.34,16.34,0,0,0,1.07,9.74,8.07,8.07,0,0,0,9.47,4.57,9.26,9.26,0,0,0,4.19-2.84,8.42,8.42,0,0,0,9.38,2.58,12.11,12.11,0,0,0,8.22-11A10.69,10.69,0,0,0,303.64,106Z"/><path class="cls-8" d="M291.68,103.71a4.12,4.12,0,0,0-4.94-.65,5.31,5.31,0,0,0-3.4,3.49,5,5,0,0,0,3.08,6.11,4.65,4.65,0,0,0,4.23-.64l.28-.07c1.46-.47,2.37-2.19,2.67-3.62A4.48,4.48,0,0,0,291.68,103.71Z"/><path class="cls-4" d="M245.29,65.64a1.78,1.78,0,0,0-2.81.72,46.17,46.17,0,0,0-7.62.17q1.65-2.07,3.42-4.05l2.83.46a.82.82,0,0,0,.27,0,1.5,1.5,0,0,0,.33.46,1.7,1.7,0,0,0,2.58-.74A1.58,1.58,0,0,0,243,60.41a1.27,1.27,0,0,0-.87.31l-.09.08a3,3,0,0,0-.25.25,1.05,1.05,0,0,0-.21-.06l-1.63-.26c.78-.82,1.57-1.63,2.38-2.42a2.14,2.14,0,0,0,2.13-2.55,2.08,2.08,0,1,0-4,1.21.43.43,0,0,1,0,.05,1.8,1.8,0,0,0,.08.21c-.89.87-1.76,1.76-2.6,2.67l-1.08-2.2a.74.74,0,0,0-.31-.32,1.73,1.73,0,0,0-.38-1.87,1.67,1.67,0,0,0-2.1-.22,1.69,1.69,0,0,0-.63,1.92,1.46,1.46,0,0,0,.77,1.12,1.37,1.37,0,0,0,.86.16,1,1,0,0,0,.1.27l1.28,2.63.06.09q-2.23,2.54-4.29,5.21a13.09,13.09,0,0,0-.82-4,1.49,1.49,0,0,0,.42-1.42.92.92,0,0,0,0-.29,1.81,1.81,0,0,0-3.06-.57,2.13,2.13,0,0,0-.65,1.56,1.56,1.56,0,0,0,1.24,1.46l.25,0a11.36,11.36,0,0,1,.4,6.3v0l-.63.88-.53-1.87a.89.89,0,0,0-.12-.26h0a1.47,1.47,0,0,0,.21-1,1,1,0,0,0,0-.3,1.5,1.5,0,0,0-1.16-1.39,1.74,1.74,0,0,0-1.92,2.24,1.67,1.67,0,0,0,1,1,2.23,2.23,0,0,0,0,.23c.33,1.13.65,2.26,1,3.39h0c-.2.3-.4.61-.61.91L225.79,76a32.73,32.73,0,0,0-1.9-7.79s0-.07,0-.1l.08-.09a1.58,1.58,0,0,0,.4-1.15,1.89,1.89,0,0,0-.48-1.57,2,2,0,0,0-3.41,1.55,2,2,0,0,0,.7,1.46,1.59,1.59,0,0,0,.29.29,1.28,1.28,0,0,0,.58.25,31.24,31.24,0,0,1,2,9.83.88.88,0,0,0,0,.17c-2.74,4.51-5.28,9.15-7.72,13.82a113.91,113.91,0,0,0-5.37,11.67,1,1,0,0,0,.42,1.35,1,1,0,0,0,1.35-.42,152.77,152.77,0,0,1,9.89-20c.13-.24.27-.48.41-.72l0,0a25.24,25.24,0,0,1,7.84-4.35q1-.37,2.13-.72c.51-.16,1.08-.27,1.6-.46a2.16,2.16,0,0,0,.53.36,1.86,1.86,0,0,0,2.38-.89,1.88,1.88,0,0,0-.8-2.47,1.91,1.91,0,0,0-2.51.72A1.4,1.4,0,0,0,234,77l-.12,0-.27.08-1.43.44a41.62,41.62,0,0,0-5.3,2.08c-.54.25-1.06.53-1.57.82,1.27-2.13,2.59-4.24,4-6.31a1,1,0,0,0,.33,0,13.88,13.88,0,0,1,1.88-.45c.32-.06.63-.1.95-.13a5.64,5.64,0,0,1,.74-.07,1.64,1.64,0,0,0,1.11.37,1.57,1.57,0,0,0,1.35-1,1.53,1.53,0,0,0-1.55-2.07,1.38,1.38,0,0,0-1.06.69,11.11,11.11,0,0,0-1.16.11c-.31,0-.63.1-.94.16.7-1,1.43-2,2.17-3a43.44,43.44,0,0,1,9.6-.4,1.54,1.54,0,0,0,1.88.62A2,2,0,0,0,245.29,65.64Z"/><path class="cls-3" d="M232.58,96.78a9.93,9.93,0,0,0-4.53-5.89l-.88-.37a8,8,0,0,0,.44-1,8.43,8.43,0,0,0,0-7.17,7,7,0,0,0-1.93-3,9.35,9.35,0,0,0-6.58-2.73l-2.48.33a9.3,9.3,0,0,0-2.71,1.25c0-.33.05-.67.06-1a7,7,0,0,0-.8-3.57,8.34,8.34,0,0,0-4.91-4.91,7,7,0,0,0-3.58-.8,9.39,9.39,0,0,0-6.57,2.72,11.69,11.69,0,0,0-1.41,1.9l0,0c-.18.38-.35.73-.5,1.08l-.06.15c-.08.18-.15.36-.22.54a9.86,9.86,0,0,0-3.53-3.81,9.07,9.07,0,0,0-4.54-1.23,6.89,6.89,0,0,0-3.47.78,8.11,8.11,0,0,0-4.75,4.75,6.63,6.63,0,0,0-.78,3.27,10.28,10.28,0,0,0-1.57-.12,9.83,9.83,0,0,0-5,1.36,10,10,0,0,0-3.56,3.56,9.83,9.83,0,0,0-1.36,5c.2,2,.31,3.64,1.49,5.36l.31.44.78,1a11.46,11.46,0,0,0-5.64,4.53,7.42,7.42,0,0,0-1.2,3.74,7.6,7.6,0,0,0,.18,4,10.18,10.18,0,0,0,4.63,6l2.4,1c.37.09.74.17,1.11.23a7.3,7.3,0,0,0-.82,1.74,9,9,0,0,0,0,7.69,7.53,7.53,0,0,0,2.06,3.22,10.08,10.08,0,0,0,7.06,2.92l2.66-.35a11,11,0,0,0,1.14-.4,12.35,12.35,0,0,0,2.81,5.61,10.88,10.88,0,0,0,6.94,2.87l2.6-.35a9.94,9.94,0,0,0,4.33-2.52l1.53-2a9.43,9.43,0,0,0,.76-1.61,15,15,0,0,0,4.38,2.53l2.68.36a7.64,7.64,0,0,0,3.89-.87,5,5,0,0,0,2.23-1.3,7.54,7.54,0,0,0,2.6-2.83l1-2.41a10.57,10.57,0,0,0,.36-2.71,7.7,7.7,0,0,0,2.88-.34,3.54,3.54,0,0,0,1.39-.54c.46-.18.92-.38,1.38-.59l.53-.24,2-1.57a7.57,7.57,0,0,0,2.08-3.24,5,5,0,0,0,.68-2.53,7.6,7.6,0,0,0-.18-4c-.33-.8-.67-1.6-1-2.4l-.68-.88.36-.31a8.8,8.8,0,0,0,3.71-6.43A7.51,7.51,0,0,0,232.58,96.78Z"/><path class="cls-9" d="M249.26,102.82c-3.53,0-3.54,5.48,0,5.48S252.79,102.82,249.26,102.82Z"/><path class="cls-8" d="M206.94,103.16a10.27,10.27,0,0,0-1.49-5.08,8.75,8.75,0,0,0-3.8-4.46,9.2,9.2,0,0,0-7-.91A11.81,11.81,0,0,0,191,94.6a9,9,0,0,0-3.72,4.26,8.67,8.67,0,0,0-.69,3.69c0,.27-.06.53-.09.81a10.34,10.34,0,0,0,.93,4.87,11,11,0,0,0,4.58,5.35,9,9,0,0,0,12.36-3.24,9.41,9.41,0,0,0,.84-1.93A8.49,8.49,0,0,0,206.94,103.16Z"/><path class="cls-5" d="M206.57,100.53a2,2,0,0,0-2.22-.44,2.23,2.23,0,0,0-1.28,2,2.3,2.3,0,0,0,.34,1.33.67.67,0,0,0,.09.14,2,2,0,0,0,.39.43,1.9,1.9,0,0,0,2.59-.07,2,2,0,0,0,.53-1A2.19,2.19,0,0,0,206.57,100.53Z"/><path class="cls-5" d="M189,101a2.36,2.36,0,0,0-.91-.84,2,2,0,0,0-1.57-.18,2.21,2.21,0,0,0-1.53,1.66,2.39,2.39,0,0,0,1.09,2.55,2.09,2.09,0,0,0,2.63-.4A2.4,2.4,0,0,0,189,101Z"/><path class="cls-5" d="M199.74,94.17a5,5,0,0,0,.2-1.13,2.38,2.38,0,0,0-1.36-2.38,2.55,2.55,0,0,0-2.43.28,3.15,3.15,0,0,0-1.33,2,2.54,2.54,0,0,0,.19,1.65,2.11,2.11,0,0,0,.35.5,2.24,2.24,0,0,0,1,.9,2.33,2.33,0,0,0,2.64-.51l.09-.1A2.34,2.34,0,0,0,199.74,94.17Z"/><path class="cls-5" d="M199.31,113.23a2.44,2.44,0,0,0-3.74-1.56,1.85,1.85,0,0,0-1,1.16,2.77,2.77,0,0,0-.12.41,3.15,3.15,0,0,0-.09.42l0,.25a5,5,0,0,0-.06.54c0,1.52,1.32,2.89,2.77,2.37a2.53,2.53,0,0,0,.33-.16A2.9,2.9,0,0,0,199.31,113.23Z"/><path class="cls-9" d="M209.26,89.92a2.18,2.18,0,0,0-2.7-.27,2.39,2.39,0,0,0-.35.28,1.56,1.56,0,0,0-.2.16,2.55,2.55,0,0,0-.46,2.9,2.31,2.31,0,0,0,2.18,1.27,2.41,2.41,0,0,0,2.15-1.83A2.63,2.63,0,0,0,209.26,89.92Z"/><path class="cls-5" d="M209,112.89a2.51,2.51,0,0,0-3,.65,2.71,2.71,0,0,0-.63,3.11,2.4,2.4,0,0,0,2.26,1.37,2.65,2.65,0,0,0,2.28-2,2.9,2.9,0,0,0,.08-1A2.14,2.14,0,0,0,209,112.89Z"/><path class="cls-5" d="M185.39,111.26a2.62,2.62,0,0,0-2.85,2,3.27,3.27,0,0,0,.14,2.34,2.27,2.27,0,0,0,2.4,1.4,3,3,0,0,0,2.09-1.41A2.93,2.93,0,0,0,185.39,111.26Z"/><path class="cls-9" d="M188.17,88.3a2.05,2.05,0,0,0-.45-.34,2.22,2.22,0,0,0-1.51-.62,2.4,2.4,0,0,0-2.35,1.86,2.76,2.76,0,0,0,1.12,3,2.51,2.51,0,0,0,3.09-.41A2.55,2.55,0,0,0,188.17,88.3Z"/><path class="cls-9" d="M210.8,107.05a1.43,1.43,0,0,0-.39-.15l0,0-.17,0h0a1.62,1.62,0,0,0-1.08.21,1.86,1.86,0,0,0-.59,2.39,1.66,1.66,0,0,0,1.45.89,1.69,1.69,0,0,0,1.44-.88A1.83,1.83,0,0,0,210.8,107.05Z"/><path class="cls-5" d="M212.11,98.32c-2.11,0-2.11,3.5,0,3.5S214.23,98.32,212.11,98.32Z"/><path class="cls-5" d="M202.87,118.08a1.63,1.63,0,0,0-1.16-.51,1.6,1.6,0,0,0-1.16.51,1.85,1.85,0,0,0-.49,1.24v.06a1.87,1.87,0,0,0,.49,1.24,1.61,1.61,0,0,0,1.16.51,1.63,1.63,0,0,0,1.16-.51,1.9,1.9,0,0,0,.48-1.24v-.06A1.87,1.87,0,0,0,202.87,118.08Z"/><path class="cls-9" d="M192.71,119.57a1.63,1.63,0,0,0-1.16-.51,1.78,1.78,0,0,0-.72.18,1.35,1.35,0,0,0-.57.4,2.2,2.2,0,0,0-.44.79,2.08,2.08,0,0,0,0,1,1.76,1.76,0,0,0,1.2,1.26,1.65,1.65,0,0,0,1.65-.48,1.92,1.92,0,0,0,.36-.6,2.56,2.56,0,0,0,.16-.76A1.82,1.82,0,0,0,192.71,119.57Z"/><path class="cls-9" d="M179.25,105.39c-2.11,0-2.12,3.49,0,3.49S181.37,105.39,179.25,105.39Z"/><path class="cls-5" d="M180.71,96.51c-2.11,0-2.11,3.5,0,3.5S182.83,96.51,180.71,96.51Z"/><path class="cls-5" d="M195.44,83.48c-2.11,0-2.12,3.5,0,3.5S197.56,83.48,195.44,83.48Z"/><path class="cls-5" d="M204.53,84.62a1.65,1.65,0,0,0-1-.8,1.55,1.55,0,0,0-1.26.17l-.25.19a1.85,1.85,0,0,0-.76,1,1.92,1.92,0,0,0,.17,1.35,1.68,1.68,0,0,0,1,.8,1.54,1.54,0,0,0,1.27-.18L204,87a1.92,1.92,0,0,0,.75-1A1.86,1.86,0,0,0,204.53,84.62Z"/><path class="cls-9" d="M196.71,98.59c-5.47,0-5.48,8.5,0,8.5S202.19,98.59,196.71,98.59Z"/><path class="cls-5" d="M109.4,404.9c-1.31.23-2.1.29-2.54-.48a1.65,1.65,0,0,1,.39-2,15.19,15.19,0,0,1,4-3.35,1.6,1.6,0,0,1,2,.23,1.56,1.56,0,0,1,.18,2.05A8.4,8.4,0,0,1,109.4,404.9Z"/><path class="cls-5" d="M96.33,411.45c1.13-.42,2.09-.89,2.8.06s0,1.79-.68,2.41A34,34,0,0,1,95,416.67a1.78,1.78,0,0,1-2.33-.14c-.74-.76-.22-1.61.29-2.25A9.29,9.29,0,0,1,96.33,411.45Z"/><path class="cls-5" d="M106.69,416.36c-1,0-1.87-.27-1.85-1.51s3-3.54,4.56-3.51a1.53,1.53,0,0,1,1.71,1.42C111.26,414,108.32,416.33,106.69,416.36Z"/><path class="cls-5" d="M127.57,400.16c.06,1.94-3.41,4.56-4.87,4.06a1.39,1.39,0,0,1-1-2,5.35,5.35,0,0,1,4.56-3.13A1.11,1.11,0,0,1,127.57,400.16Z"/><path class="cls-5" d="M111,390.77a1.32,1.32,0,0,1-1.84-.69c-.52-1.17,1.46-4.43,3-4.91a1.4,1.4,0,0,1,1.93,1C114.42,387.2,112.28,390.35,111,390.77Z"/><path class="cls-5" d="M99.67,398.79c.14,1.31-.66,2-1.31,2.75s-1.48,1.7-2.75,1.53a1,1,0,0,1-.91-.91c-.18-1.3.85-2,1.56-2.74a2.79,2.79,0,0,1,2.64-1.16C99.21,398.32,99.47,398.64,99.67,398.79Z"/><path class="cls-5" d="M127.66,426.54c-1.31.23-2.1.29-2.54-.48a1.65,1.65,0,0,1,.39-2,15.19,15.19,0,0,1,4-3.35,1.6,1.6,0,0,1,2.05.23,1.55,1.55,0,0,1,.18,2.05A8.35,8.35,0,0,1,127.66,426.54Z"/><path class="cls-5" d="M115.16,434.62c1.13-.42,2.09-.89,2.8.06s0,1.79-.68,2.4a31.8,31.8,0,0,1-3.49,2.76,1.78,1.78,0,0,1-2.33-.14c-.74-.77-.22-1.61.3-2.26A9.15,9.15,0,0,1,115.16,434.62Z"/><path class="cls-5" d="M136.67,439.25c-1,0-1.88-.27-1.85-1.5s3.05-3.55,4.55-3.52a1.55,1.55,0,0,1,1.72,1.42C141.24,436.87,138.3,439.22,136.67,439.25Z"/><path class="cls-5" d="M149.42,423.06c.06,1.94-3.41,4.55-4.87,4.05a1.37,1.37,0,0,1-1-2,5.34,5.34,0,0,1,4.56-3.13A1.11,1.11,0,0,1,149.42,423.06Z"/><path class="cls-5" d="M132.86,413.67A1.33,1.33,0,0,1,131,413c-.51-1.17,1.47-4.42,3-4.91a1.4,1.4,0,0,1,1.93,1C136.27,410.09,134.13,413.25,132.86,413.67Z"/><path class="cls-5" d="M157,428.78a1.33,1.33,0,0,1-1.84-.69c-.52-1.17,1.46-4.43,3-4.92a1.4,1.4,0,0,1,1.93,1C160.39,425.21,158.24,428.36,157,428.78Z"/><path class="cls-5" d="M121.52,421.68c.14,1.31-.65,2-1.31,2.75s-1.48,1.71-2.75,1.53a1,1,0,0,1-.91-.9c-.17-1.3.85-1.95,1.57-2.75a2.8,2.8,0,0,1,2.63-1.16C121.06,421.21,121.32,421.54,121.52,421.68Z"/><path class="cls-5" d="M154,434.87c.14,1.31-.65,2-1.31,2.76s-1.48,1.7-2.75,1.53a1,1,0,0,1-.91-.91c-.17-1.3.85-1.95,1.56-2.75a2.8,2.8,0,0,1,2.64-1.15C153.49,434.41,153.75,434.73,154,434.87Z"/></g></g></svg>